<svg class="svg-icon" style="width: 1em; height: 1em;vertical-align: middle;fill: currentColor;overflow: hidden;" viewBox="0 0 1024 1024" version="1.1" xmlns="http://www.w3.org/2000/svg"><path d="M512 981.333333C252.8 981.333333 42.666667 771.2 42.666667 512S252.8 42.666667 512 42.666667s469.333333 210.133333 469.333333 469.333333-210.133333 469.333333-469.333333 469.333333z m0-85.333333c212.074667 0 384-171.925333 384-384S724.074667 128 512 128 128 299.925333 128 512s171.925333 384 384 384z m0-85.333333a42.666667 42.666667 0 1 1 0-85.333334 42.666667 42.666667 0 0 1 0 85.333334z m42.624-190.250667a42.666667 42.666667 0 1 1-85.248-3.498667 168.96 168.96 0 0 1 16.042667-63.573333c12.693333-27.072 32.234667-48.725333 59.818666-61.162667C589.525333 472.192 618.666667 433.130667 618.666667 405.333333a106.666667 106.666667 0 0 0-213.333334 0 42.666667 42.666667 0 1 1-85.333333 0 192 192 0 0 1 384 0c0 63.829333-50.602667 131.669333-123.690667 164.629334-7.146667 3.221333-12.970667 9.685333-17.642666 19.626666a91.52 91.52 0 0 0-6.826667 22.037334 76.842667 76.842667 0 0 0-1.216 8.789333z" fill="" /></svg>