<svg class="svg-icon" style="width: 1em; height: 1em;vertical-align: middle;fill: currentColor;overflow: hidden;" viewBox="0 0 1024 1024" version="1.1" xmlns="http://www.w3.org/2000/svg"><path d="M874.517333 384A106.688 106.688 0 0 1 981.333333 490.709333v42.581334A106.709333 106.709333 0 0 1 874.517333 640H640v234.517333A106.688 106.688 0 0 1 533.290667 981.333333h-42.581334A106.709333 106.709333 0 0 1 384 874.517333V640H149.482667A106.688 106.688 0 0 1 42.666667 533.290667v-42.581334A106.709333 106.709333 0 0 1 149.482667 384H384V149.482667A106.688 106.688 0 0 1 490.709333 42.666667h42.581334A106.709333 106.709333 0 0 1 640 149.482667V384h234.517333zM554.666667 426.666667V149.482667C554.666667 137.536 545.109333 128 533.290667 128h-42.581334C478.848 128 469.333333 137.557333 469.333333 149.482667V426.666667a42.666667 42.666667 0 0 1-42.666666 42.666666H149.482667C137.536 469.333333 128 478.890667 128 490.709333v42.581334C128 545.152 137.557333 554.666667 149.482667 554.666667H426.666667a42.666667 42.666667 0 0 1 42.666666 42.666666v277.184c0 11.946667 9.557333 21.482667 21.376 21.482667h42.581334c11.861333 0 21.376-9.557333 21.376-21.482667V597.333333a42.666667 42.666667 0 0 1 42.666666-42.666666h277.184c11.946667 0 21.482667-9.557333 21.482667-21.376v-42.581334c0-11.861333-9.557333-21.376-21.482667-21.376H597.333333a42.666667 42.666667 0 0 1-42.666666-42.666666z" fill="" /></svg>