<svg class="svg-icon" style="width: 1em; height: 1em;vertical-align: middle;fill: currentColor;overflow: hidden;" viewBox="0 0 1024 1024" version="1.1" xmlns="http://www.w3.org/2000/svg"><path d="M286.293333 170.666667a106.730667 106.730667 0 0 1 97.557334-64h9.002666a106.666667 106.666667 0 0 1 97.856-64h42.581334a106.773333 106.773333 0 0 1 97.813333 64h9.045333a106.538667 106.538667 0 0 1 97.6 64H768a106.666667 106.666667 0 0 1 106.666667 106.709333v597.248A106.752 106.752 0 0 1 768 981.333333H256a106.666667 106.666667 0 0 1-106.666667-106.709333V277.376A106.752 106.752 0 0 1 256 170.666667h30.293333z m-6.784 85.333333H256c-11.733333 0-21.333333 9.6-21.333333 21.376v597.248A21.333333 21.333333 0 0 0 256 896h512c11.733333 0 21.333333-9.6 21.333333-21.376V277.376A21.333333 21.333333 0 0 0 768 256h-23.509333c-9.962667 48.64-53.013333 85.333333-104.32 85.333333H383.829333a106.666667 106.666667 0 0 1-104.341333-85.333333zM426.666667 192h-42.816A21.546667 21.546667 0 0 0 362.666667 213.546667v20.906666c0 11.946667 9.557333 21.546667 21.184 21.546667h256.298666c11.498667 0 21.184-9.706667 21.184-21.546667v-20.906666c0-11.946667-9.557333-21.546667-21.184-21.546667H597.333333a42.666667 42.666667 0 0 1-42.666666-42.666667c0-11.733333-9.6-21.333333-21.376-21.333333h-42.581334A21.290667 21.290667 0 0 0 469.333333 149.333333a42.666667 42.666667 0 0 1-42.666666 42.666667z m-94.165334 307.498667a42.666667 42.666667 0 1 1 60.330667-60.330667 42.666667 42.666667 0 0 1-60.330667 60.330667zM490.666667 512a42.666667 42.666667 0 1 1 0-85.333333h170.666666a42.666667 42.666667 0 1 1 0 85.333333h-170.666666z m-158.165334 136.832a42.666667 42.666667 0 1 1 60.330667-60.330667 42.666667 42.666667 0 0 1-60.330667 60.330667zM490.666667 661.333333a42.666667 42.666667 0 1 1 0-85.333333h170.666666a42.666667 42.666667 0 1 1 0 85.333333h-170.666666z m-158.165334 136.832a42.666667 42.666667 0 1 1 60.330667-60.330666 42.666667 42.666667 0 0 1-60.330667 60.330666zM490.666667 810.666667a42.666667 42.666667 0 1 1 0-85.333334h170.666666a42.666667 42.666667 0 1 1 0 85.333334h-170.666666z" fill="" /></svg>